# xmcd CD database file
#
# Track frame offsets:
#	150
#	16734
#	33998
#	54254
#	74220
#	91795
#	108101
#	127831
#	143026
#	161902
#	184240
#	200992
#	219672
#	241064
#	256998
#	279399
#	299145
#	320449
#	337247
#
# Disc length: 4694 seconds
#
# Revision: 0
# Processed by: cddbd v1.5.2PL0 Copyright (c) Steve Scherf et al.
# Submitted via: CDex 1.70beta2
#
DISCID=25125413
DTITLE=ERA - Greatest Hits Star Mark (1
DYEAR=2007
DGENRE=New Age
TTITLE0=The Mass
TTITLE1=Ameno
TTITLE2=Infanati
TTITLE3=Don't Go Away
TTITLE4=Don't U
TTITLE5=Enae Volare
TTITLE6=Avemano Orchestral
TTITLE7=Cathar Rhythm
TTITLE8=Looking For Something
TTITLE9=Sentence
TTITLE10=Don't You Forget
TTITLE11=Misere Mani
TTITLE12=Omen Sore
TTITLE13=The Champions
TTITLE14=Hymne
TTITLE15=Voxifera
TTITLE16=Mother
TTITLE17=Sombre Day
TTITLE18=Era
EXTD=YEAR: 2007
EXTT0=
EXTT1=
EXTT2=
EXTT3=
EXTT4=
EXTT5=
EXTT6=
EXTT7=
EXTT8=
EXTT9=
EXTT10=
EXTT11=
EXTT12=
EXTT13=
EXTT14=
EXTT15=
EXTT16=
EXTT17=
EXTT18=
PLAYORDER=
